<svg xmlns="http://www.w3.org/2000/svg" viewBox="0 0 50 50"><path d="M10 3C7.25 3 5 5.25 5 8L5 21.6875C4.53125 21.246094 4.144531 20.867188 3.949219 20.671875L3.835938 20.554688C3.652344 20.382813 3.289063 20.289063 3.058594 20.289063C2.367188 20.289063 2 20.644531 2 21C2.003906 21.824219 2.3125 22.460938 2.382813 22.625C3.40625 25.121094 7.953125 29.957031 11.40625 31.25C10.359375 33.34375 10.359375 38.570313 10.359375 38.570313C10.359375 43.054688 13.726563 46.78125 18.328125 46.9375L19.824219 46.9375C22.125 46.78125 23.964844 44.941406 23.953125 42.640625L23.953125 33.894531C24.375 34.074219 25.144531 34.257813 26.046875 34.332031L26.046875 42.796875C26.046875 45.082031 27.902344 46.9375 30.1875 46.9375L31.773438 46.9375C36.332031 46.9375 39.640625 43.246094 39.640625 38.570313C39.640625 38.570313 39.640625 33.34375 38.59375 31.25C41.765625 29.921875 46.125 25.535156 47.5625 22.890625C47.652344 22.726563 48 21.820313 48 20.800781C48 20.554688 47.777344 19.976563 47.082031 19.976563C46.597656 19.976563 46.265625 20.40625 46.265625 20.40625C46.039063 20.632813 45.585938 21.09375 45 21.636719L45 8C45 5.25 42.75 3 40 3 Z M 10 5L40 5C41.667969 5 43 6.332031 43 8L43 23.3125C40.628906 25.128906 37.238281 27.066406 33.363281 27.066406L28.734375 27.066406C27.214844 27.066406 26.046875 28.355469 26.046875 29.757813L26.046875 30.582031C25.125 30.074219 24.082031 29.195313 22.90625 27.800781C22.90625 27.800781 22.449219 27.066406 21.203125 27.066406L16.636719 27.066406C12.6875 27.066406 9.3125 25.144531 7 23.378906L7 8C7 6.332031 8.332031 5 10 5 Z M 17.5 14C14.460938 14 12 16.460938 12 19.5C12 22.539063 14.460938 25 17.5 25C20.539063 25 23 22.539063 23 19.5C23 16.460938 20.539063 14 17.5 14 Z M 32.5 14C29.460938 14 27 16.460938 27 19.5C27 22.539063 29.460938 25 32.5 25C35.539063 25 38 22.539063 38 19.5C38 16.460938 35.539063 14 32.5 14Z"/></svg>